@startuml sistema operativo
'https://plantuml.com/class-diagram

left to right direction
skinparam classAttributeIconSize 0

class Directorio{
}
class Usuario{
autorizado()
}

Directorio "1" -- "1..n*"Directorio
Directorio "1..*" -- "1..*" Usuario : posee propietario
Usuario "1" -- "1..n" Usuario : autorizado

@enduml